<?xml version="1.0" encoding="UTF-8"?>
<svg xmlns="http://www.w3.org/2000/svg" xmlns:xlink="http://www.w3.org/1999/xlink" width="375pt" height="374.999991pt" viewBox="0 0 375 374.999991" version="1.2">
<defs>
<clipPath id="clip1">
  <path d="M 37.5 37.5 L 337.5 37.5 L 337.5 337.5 L 37.5 337.5 Z M 37.5 37.5 "/>
</clipPath>
</defs>
<g id="surface1">
<g clip-path="url(#clip1)" clip-rule="nonzero">
<path style=" stroke:none;fill-rule:nonzero;fill:rgb(81.17981%,41.569519%,0%);fill-opacity:1;" d="M 287.726562 37.5 L 87.273438 37.5 C 85.644531 37.503906 84.019531 37.582031 82.398438 37.746094 C 80.777344 37.90625 79.164062 38.148438 77.566406 38.46875 C 75.96875 38.785156 74.390625 39.183594 72.832031 39.65625 C 71.273438 40.132812 69.742188 40.679688 68.238281 41.304688 C 66.730469 41.929688 65.261719 42.628906 63.824219 43.394531 C 62.386719 44.164062 60.992188 45.003906 59.636719 45.910156 C 58.28125 46.8125 56.976562 47.785156 55.714844 48.816406 C 54.457031 49.851562 53.25 50.945312 52.097656 52.097656 C 50.945312 53.25 49.851562 54.457031 48.816406 55.714844 C 47.785156 56.976562 46.8125 58.28125 45.910156 59.636719 C 45.003906 60.992188 44.164062 62.386719 43.394531 63.824219 C 42.628906 65.261719 41.929688 66.730469 41.304688 68.238281 C 40.679688 69.742188 40.132812 71.273438 39.65625 72.832031 C 39.183594 74.390625 38.785156 75.96875 38.46875 77.566406 C 38.148438 79.164062 37.90625 80.777344 37.746094 82.398438 C 37.585938 84.019531 37.503906 85.644531 37.5 87.273438 L 37.5 287.738281 C 37.503906 289.367188 37.585938 290.992188 37.746094 292.613281 C 37.910156 294.234375 38.148438 295.84375 38.46875 297.441406 C 38.789062 299.039062 39.1875 300.617188 39.660156 302.175781 C 40.136719 303.734375 40.683594 305.269531 41.308594 306.773438 C 41.933594 308.277344 42.632812 309.746094 43.402344 311.183594 C 44.167969 312.621094 45.007812 314.015625 45.914062 315.371094 C 46.820312 316.726562 47.789062 318.03125 48.824219 319.289062 C 49.855469 320.550781 50.949219 321.753906 52.101562 322.90625 C 53.253906 324.058594 54.460938 325.152344 55.71875 326.183594 C 56.980469 327.21875 58.285156 328.1875 59.640625 329.09375 C 60.996094 330 62.390625 330.835938 63.828125 331.605469 C 65.265625 332.375 66.734375 333.070312 68.238281 333.695312 C 69.746094 334.320312 71.277344 334.867188 72.835938 335.34375 C 74.394531 335.816406 75.972656 336.214844 77.570312 336.53125 C 79.167969 336.851562 80.777344 337.09375 82.398438 337.253906 C 84.019531 337.417969 85.644531 337.496094 87.273438 337.5 L 287.726562 337.5 C 289.355469 337.496094 290.980469 337.417969 292.601562 337.253906 C 294.222656 337.09375 295.832031 336.851562 297.429688 336.53125 C 299.027344 336.214844 300.605469 335.816406 302.164062 335.34375 C 303.722656 334.867188 305.253906 334.320312 306.761719 333.695312 C 308.265625 333.070312 309.734375 332.375 311.171875 331.605469 C 312.609375 330.835938 314.003906 330 315.359375 329.09375 C 316.714844 328.1875 318.019531 327.21875 319.28125 326.1875 C 320.539062 325.152344 321.746094 324.058594 322.898438 322.90625 C 324.050781 321.753906 325.144531 320.550781 326.175781 319.289062 C 327.210938 318.03125 328.179688 316.726562 329.085938 315.371094 C 329.992188 314.015625 330.832031 312.621094 331.597656 311.183594 C 332.367188 309.746094 333.066406 308.277344 333.691406 306.773438 C 334.316406 305.269531 334.863281 303.734375 335.339844 302.175781 C 335.8125 300.617188 336.210938 299.039062 336.53125 297.441406 C 336.851562 295.84375 337.089844 294.234375 337.253906 292.613281 C 337.414062 290.992188 337.496094 289.367188 337.5 287.738281 L 337.5 87.273438 C 337.496094 85.644531 337.414062 84.019531 337.253906 82.398438 C 337.09375 80.777344 336.851562 79.164062 336.53125 77.566406 C 336.214844 75.96875 335.816406 74.390625 335.34375 72.832031 C 334.867188 71.273438 334.320312 69.742188 333.695312 68.238281 C 333.070312 66.730469 332.371094 65.261719 331.605469 63.824219 C 330.835938 62.386719 329.996094 60.992188 329.089844 59.636719 C 328.1875 58.28125 327.214844 56.976562 326.183594 55.714844 C 325.148438 54.457031 324.054688 53.25 322.902344 52.097656 C 321.75 50.945312 320.542969 49.851562 319.285156 48.816406 C 318.023438 47.785156 316.71875 46.8125 315.363281 45.910156 C 314.007812 45.003906 312.613281 44.164062 311.175781 43.394531 C 309.738281 42.628906 308.269531 41.929688 306.761719 41.304688 C 305.257812 40.679688 303.726562 40.132812 302.167969 39.65625 C 300.609375 39.183594 299.03125 38.785156 297.433594 38.46875 C 295.832031 38.148438 294.222656 37.90625 292.601562 37.746094 C 290.980469 37.585938 289.355469 37.503906 287.726562 37.5 Z M 224.179688 300.496094 C 223.1875 300.785156 222.175781 300.960938 221.140625 301.019531 C 220.109375 301.074219 219.082031 301.011719 218.066406 300.832031 C 217.046875 300.652344 216.0625 300.359375 215.113281 299.953125 C 214.164062 299.546875 213.273438 299.035156 212.4375 298.421875 C 211.113281 297.269531 210.097656 295.886719 209.386719 294.28125 C 208.671875 292.675781 208.335938 290.996094 208.371094 289.238281 L 208.371094 283.082031 C 208.371094 277.433594 208.460938 268.890625 208.460938 259.082031 C 208.605469 257.671875 208.597656 256.265625 208.441406 254.859375 C 208.285156 253.449219 207.980469 252.074219 207.53125 250.734375 C 207.082031 249.390625 206.496094 248.109375 205.773438 246.890625 C 205.050781 245.675781 204.207031 244.546875 203.242188 243.507812 C 202.78125 243.105469 202.382812 242.648438 202.050781 242.128906 C 201.722656 241.613281 201.472656 241.058594 201.304688 240.46875 C 201.136719 239.878906 201.054688 239.277344 201.0625 238.664062 C 201.070312 238.050781 201.164062 237.449219 201.34375 236.863281 C 201.527344 236.277344 201.789062 235.730469 202.132812 235.21875 C 202.472656 234.710938 202.878906 234.257812 203.355469 233.867188 C 203.828125 233.476562 204.347656 233.160156 204.910156 232.921875 C 205.476562 232.683594 206.0625 232.527344 206.675781 232.460938 C 229.722656 229.851562 251.023438 222.3125 251.023438 184.5 C 251.0625 182.1875 250.886719 179.894531 250.492188 177.613281 C 250.09375 175.335938 249.484375 173.117188 248.664062 170.957031 C 247.84375 168.792969 246.824219 166.730469 245.609375 164.761719 C 244.390625 162.796875 243 160.960938 241.433594 159.261719 C 241.035156 158.820312 240.703125 158.335938 240.441406 157.804688 C 240.179688 157.273438 239.992188 156.71875 239.886719 156.132812 C 239.777344 155.550781 239.753906 154.964844 239.808594 154.375 C 239.867188 153.785156 240.003906 153.210938 240.222656 152.660156 C 241.386719 149.34375 241.988281 145.925781 242.03125 142.410156 C 242.070312 138.890625 241.546875 135.460938 240.457031 132.117188 C 236.464844 133.019531 232.613281 134.339844 228.90625 136.074219 C 225.195312 137.808594 221.714844 139.921875 218.464844 142.410156 C 217.699219 142.925781 216.863281 143.257812 215.949219 143.410156 C 215.039062 143.558594 214.136719 143.511719 213.246094 143.269531 C 204.816406 140.980469 196.234375 139.804688 187.5 139.746094 C 178.792969 139.78125 170.242188 140.949219 161.84375 143.242188 C 160.953125 143.492188 160.050781 143.542969 159.140625 143.390625 C 158.226562 143.242188 157.390625 142.90625 156.625 142.382812 C 153.375 139.886719 149.890625 137.773438 146.175781 136.042969 C 142.457031 134.316406 138.597656 133.011719 134.59375 132.128906 C 133.511719 135.464844 132.996094 138.886719 133.039062 142.390625 C 133.082031 145.898438 133.691406 149.300781 134.855469 152.609375 C 135.078125 153.160156 135.222656 153.734375 135.28125 154.328125 C 135.34375 154.917969 135.320312 155.507812 135.214844 156.09375 C 135.109375 156.679688 134.921875 157.242188 134.65625 157.773438 C 134.394531 158.308594 134.058594 158.796875 133.65625 159.234375 C 132.089844 160.933594 130.695312 162.769531 129.476562 164.734375 C 128.261719 166.699219 127.242188 168.765625 126.417969 170.925781 C 125.597656 173.089844 124.988281 175.308594 124.589844 177.585938 C 124.191406 179.867188 124.015625 182.160156 124.054688 184.472656 C 124.054688 222.300781 146.4375 229.996094 168.324219 232.539062 C 168.738281 232.585938 169.144531 232.671875 169.539062 232.800781 C 169.933594 232.925781 170.3125 233.089844 170.675781 233.292969 C 171.039062 233.492188 171.378906 233.730469 171.695312 233.996094 C 172.011719 234.265625 172.300781 234.5625 172.558594 234.886719 C 172.816406 235.214844 173.039062 235.5625 173.230469 235.929688 C 173.417969 236.300781 173.570312 236.683594 173.683594 237.082031 C 173.796875 237.484375 173.871094 237.890625 173.90625 238.304688 C 173.9375 238.71875 173.929688 239.132812 173.882812 239.542969 C 173.824219 239.949219 173.726562 240.347656 173.589844 240.738281 C 173.457031 241.125 173.285156 241.5 173.082031 241.855469 C 172.875 242.214844 172.636719 242.546875 172.371094 242.859375 C 172.101562 243.171875 171.804688 243.453125 171.480469 243.710938 C 171.160156 243.964844 170.816406 244.191406 170.453125 244.378906 C 170.085938 244.570312 169.707031 244.726562 169.3125 244.84375 C 168.917969 244.964844 168.515625 245.046875 168.109375 245.085938 C 167.699219 245.128906 167.289062 245.132812 166.878906 245.101562 C 143.074219 242.335938 111.429688 233.0625 111.429688 184.472656 C 111.398438 181.699219 111.601562 178.9375 112.035156 176.195312 C 112.46875 173.453125 113.128906 170.765625 114.019531 168.136719 C 114.90625 165.503906 116.007812 162.96875 117.328125 160.523438 C 118.644531 158.078125 120.15625 155.761719 121.863281 153.574219 C 121.25 151.09375 120.835938 148.582031 120.621094 146.039062 C 120.402344 143.492188 120.390625 140.949219 120.582031 138.402344 C 120.773438 135.855469 121.164062 133.335938 121.753906 130.851562 C 122.347656 128.367188 123.132812 125.945312 124.109375 123.585938 C 124.453125 122.710938 124.96875 121.945312 125.652344 121.296875 C 126.335938 120.648438 127.125 120.179688 128.023438 119.882812 C 129.992188 119.230469 140.476562 116.933594 161.203125 130.316406 C 169.832031 128.1875 178.59375 127.121094 187.480469 127.121094 C 196.367188 127.121094 205.128906 128.1875 213.757812 130.316406 C 234.457031 116.921875 244.957031 119.21875 246.898438 119.882812 C 247.792969 120.175781 248.582031 120.648438 249.265625 121.292969 C 249.949219 121.9375 250.464844 122.699219 250.8125 123.574219 C 251.808594 125.929688 252.609375 128.347656 253.214844 130.832031 C 253.820312 133.316406 254.222656 135.835938 254.417969 138.382812 C 254.617188 140.933594 254.609375 143.484375 254.390625 146.03125 C 254.175781 148.578125 253.757812 151.09375 253.132812 153.574219 C 254.84375 155.761719 256.355469 158.078125 257.671875 160.519531 C 258.988281 162.964844 260.089844 165.5 260.980469 168.128906 C 261.867188 170.757812 262.527344 173.445312 262.964844 176.1875 C 263.398438 178.925781 263.601562 181.683594 263.570312 184.460938 C 263.570312 226.511719 239.921875 239.085938 218.101562 243.429688 C 220.121094 248.453125 221.09375 253.671875 221.023438 259.082031 C 221.023438 268.917969 220.957031 277.472656 220.917969 283.175781 L 220.917969 288.078125 C 222.816406 287.417969 224.699219 286.703125 226.554688 285.933594 C 228.414062 285.164062 230.25 284.339844 232.058594 283.460938 C 233.871094 282.585938 235.652344 281.652344 237.410156 280.671875 C 239.164062 279.691406 240.890625 278.65625 242.585938 277.574219 C 244.28125 276.488281 245.945312 275.359375 247.574219 274.175781 C 249.203125 272.996094 250.792969 271.769531 252.351562 270.492188 C 253.910156 269.21875 255.425781 267.898438 256.90625 266.535156 C 258.386719 265.171875 259.824219 263.765625 261.222656 262.320312 C 262.617188 260.871094 263.972656 259.382812 265.28125 257.855469 C 266.589844 256.328125 267.855469 254.765625 269.074219 253.164062 C 270.292969 251.5625 271.460938 249.925781 272.582031 248.257812 C 273.707031 246.585938 274.777344 244.886719 275.800781 243.152344 C 276.824219 241.417969 277.792969 239.660156 278.710938 237.867188 C 279.632812 236.078125 280.496094 234.261719 281.308594 232.421875 C 282.121094 230.582031 282.878906 228.71875 283.582031 226.835938 C 284.285156 224.949219 284.933594 223.046875 285.523438 221.121094 C 286.117188 219.199219 286.652344 217.261719 287.128906 215.304688 C 287.605469 213.351562 288.027344 211.386719 288.390625 209.40625 C 288.75 207.425781 289.054688 205.4375 289.300781 203.441406 C 289.546875 201.445312 289.734375 199.441406 289.863281 197.433594 C 289.992188 195.425781 290.0625 193.417969 290.070312 191.40625 C 290.082031 189.394531 290.035156 187.382812 289.925781 185.375 C 289.820312 183.363281 289.652344 181.359375 289.425781 179.359375 C 289.203125 177.363281 288.917969 175.371094 288.578125 173.386719 C 288.234375 171.40625 287.835938 169.433594 287.378906 167.472656 C 286.921875 165.515625 286.40625 163.570312 285.835938 161.640625 C 285.261719 159.714844 284.636719 157.800781 283.953125 155.910156 C 283.269531 154.019531 282.53125 152.148438 281.738281 150.296875 C 280.945312 148.449219 280.097656 146.625 279.195312 144.824219 C 278.296875 143.027344 277.34375 141.253906 276.339844 139.511719 C 275.335938 137.769531 274.28125 136.054688 273.175781 134.375 C 272.074219 132.691406 270.917969 131.042969 269.71875 129.429688 C 268.515625 127.816406 267.269531 126.238281 265.976562 124.699219 C 264.683594 123.15625 263.34375 121.65625 261.960938 120.195312 C 260.582031 118.730469 259.15625 117.308594 257.691406 115.933594 C 256.226562 114.554688 254.722656 113.21875 253.179688 111.925781 C 251.636719 110.636719 250.054688 109.394531 248.4375 108.195312 C 246.820312 106.996094 245.171875 105.847656 243.488281 104.746094 C 241.804688 103.644531 240.089844 102.59375 238.34375 101.59375 C 236.597656 100.59375 234.824219 99.644531 233.023438 98.75 C 231.222656 97.851562 229.394531 97.007812 227.546875 96.21875 C 225.695312 95.429688 223.824219 94.695312 221.929688 94.015625 C 220.035156 93.335938 218.125 92.714844 216.191406 92.144531 C 214.261719 91.578125 212.316406 91.066406 210.355469 90.613281 C 208.398438 90.160156 206.425781 89.765625 204.441406 89.429688 C 202.457031 89.089844 200.464844 88.8125 198.464844 88.589844 C 196.46875 88.371094 194.460938 88.207031 192.453125 88.105469 C 190.445312 88 188.433594 87.957031 186.421875 87.972656 C 184.410156 87.984375 182.398438 88.058594 180.390625 88.191406 C 178.382812 88.324219 176.382812 88.515625 174.386719 88.765625 C 172.390625 89.015625 170.402344 89.324219 168.425781 89.691406 C 166.445312 90.058594 164.480469 90.480469 162.527344 90.964844 C 160.574219 91.445312 158.636719 91.984375 156.714844 92.578125 C 154.792969 93.175781 152.890625 93.828125 151.003906 94.535156 C 149.121094 95.242188 147.261719 96.003906 145.421875 96.820312 C 143.582031 97.636719 141.769531 98.503906 139.980469 99.429688 C 138.195312 100.351562 136.433594 101.324219 134.703125 102.351562 C 132.972656 103.375 131.273438 104.453125 129.605469 105.578125 C 127.9375 106.703125 126.304688 107.878906 124.707031 109.097656 C 123.105469 110.320312 121.546875 111.585938 120.019531 112.898438 C 118.496094 114.214844 117.011719 115.570312 115.566406 116.96875 C 114.121094 118.371094 112.71875 119.8125 111.359375 121.292969 C 110 122.777344 108.683594 124.296875 107.410156 125.855469 C 106.140625 127.414062 104.917969 129.011719 103.738281 130.644531 C 102.5625 132.273438 101.433594 133.9375 100.351562 135.636719 C 99.273438 137.332031 98.242188 139.0625 97.265625 140.820312 C 96.285156 142.578125 95.359375 144.363281 94.484375 146.175781 C 93.613281 147.988281 92.792969 149.824219 92.027344 151.683594 C 91.257812 153.542969 90.546875 155.425781 89.894531 157.328125 C 89.238281 159.230469 88.636719 161.148438 88.09375 163.085938 C 87.550781 165.023438 87.066406 166.976562 86.636719 168.941406 C 86.207031 170.90625 85.835938 172.882812 85.523438 174.871094 C 85.210938 176.859375 84.957031 178.851562 84.761719 180.855469 C 84.566406 182.859375 84.429688 184.863281 84.351562 186.875 C 84.273438 188.886719 84.253906 190.898438 84.292969 192.910156 C 84.332031 194.917969 84.433594 196.929688 84.589844 198.933594 C 84.746094 200.941406 84.964844 202.941406 85.238281 204.933594 C 85.511719 206.925781 85.847656 208.910156 86.238281 210.882812 C 86.628906 212.855469 87.078125 214.816406 87.585938 216.765625 C 88.089844 218.710938 88.652344 220.640625 89.273438 222.554688 C 89.894531 224.46875 90.566406 226.363281 91.296875 228.238281 C 92.03125 230.113281 92.8125 231.964844 93.652344 233.792969 C 94.492188 235.621094 95.386719 237.425781 96.332031 239.199219 C 97.273438 240.976562 98.269531 242.722656 99.320312 244.441406 C 100.367188 246.160156 101.464844 247.84375 102.609375 249.5 C 103.757812 251.152344 104.949219 252.769531 106.191406 254.355469 C 107.433594 255.9375 108.71875 257.484375 110.050781 258.992188 C 111.382812 260.5 112.757812 261.964844 114.175781 263.394531 C 115.59375 264.820312 117.054688 266.207031 118.550781 267.546875 C 120.050781 268.890625 121.589844 270.1875 123.164062 271.4375 C 124.738281 272.6875 126.351562 273.894531 127.996094 275.050781 C 129.640625 276.207031 131.320312 277.316406 133.03125 278.375 C 134.742188 279.433594 136.484375 280.441406 138.253906 281.394531 C 140.023438 282.351562 141.820312 283.257812 143.644531 284.109375 C 145.464844 284.957031 147.3125 285.753906 149.183594 286.5 C 151.050781 287.242188 152.941406 287.929688 154.851562 288.5625 C 154.003906 280.804688 153.679688 273.027344 153.875 265.226562 C 152.28125 265.371094 150.730469 265.488281 149.242188 265.488281 C 147.546875 265.613281 145.851562 265.597656 144.15625 265.449219 C 142.460938 265.300781 140.789062 265.019531 139.136719 264.601562 C 137.488281 264.183594 135.882812 263.636719 134.320312 262.960938 C 132.757812 262.28125 131.261719 261.484375 129.828125 260.566406 C 128.394531 259.652344 127.046875 258.625 125.777344 257.488281 C 124.507812 256.355469 123.339844 255.125 122.269531 253.800781 C 121.199219 252.480469 120.242188 251.078125 119.398438 249.601562 C 118.554688 248.125 117.832031 246.589844 117.234375 244.996094 C 117.105469 244.597656 117.015625 244.1875 116.96875 243.769531 C 116.921875 243.351562 116.917969 242.933594 116.953125 242.515625 C 116.988281 242.097656 117.066406 241.6875 117.183594 241.285156 C 117.300781 240.878906 117.457031 240.492188 117.652344 240.121094 C 117.847656 239.75 118.078125 239.398438 118.34375 239.074219 C 118.609375 238.746094 118.902344 238.453125 119.226562 238.183594 C 119.550781 237.917969 119.898438 237.683594 120.269531 237.488281 C 120.640625 237.289062 121.027344 237.128906 121.429688 237.007812 C 121.832031 236.886719 122.242188 236.808594 122.660156 236.769531 C 123.078125 236.730469 123.496094 236.734375 123.914062 236.777344 C 124.332031 236.824219 124.742188 236.910156 125.140625 237.035156 C 125.542969 237.160156 125.925781 237.328125 126.292969 237.53125 C 126.660156 237.734375 127.003906 237.96875 127.328125 238.242188 C 127.648438 238.511719 127.9375 238.8125 128.195312 239.144531 C 128.457031 239.472656 128.683594 239.824219 128.871094 240.199219 C 129.0625 240.574219 129.214844 240.964844 129.324219 241.371094 C 129.820312 242.894531 135.207031 256.839844 158.816406 251.804688 C 159.222656 251.714844 159.632812 251.667969 160.046875 251.660156 C 160.460938 251.652344 160.875 251.683594 161.28125 251.757812 C 161.691406 251.832031 162.085938 251.945312 162.472656 252.097656 C 162.859375 252.25 163.226562 252.4375 163.574219 252.660156 C 163.921875 252.886719 164.246094 253.144531 164.542969 253.433594 C 164.84375 253.722656 165.109375 254.035156 165.34375 254.378906 C 165.578125 254.71875 165.777344 255.082031 165.941406 255.460938 C 166.105469 255.84375 166.230469 256.238281 166.316406 256.644531 C 166.519531 257.65625 166.464844 258.65625 166.160156 259.644531 C 166.316406 260.09375 166.421875 260.554688 166.472656 261.027344 C 166.539062 270.234375 166.628906 286.65625 166.628906 289.292969 C 166.660156 291.042969 166.316406 292.71875 165.597656 294.316406 C 164.878906 295.914062 163.855469 297.28125 162.523438 298.421875 C 161.417969 299.320312 160.195312 300.003906 158.847656 300.464844 C 157.503906 300.925781 156.117188 301.140625 154.695312 301.109375 C 153.691406 301.113281 152.695312 301.027344 151.707031 300.847656 C 149.550781 300.144531 147.417969 299.378906 145.304688 298.550781 C 143.191406 297.722656 141.105469 296.835938 139.046875 295.882812 C 136.984375 294.933594 134.957031 293.921875 132.957031 292.851562 C 130.953125 291.78125 128.988281 290.652344 127.054688 289.46875 C 125.121094 288.28125 123.222656 287.039062 121.359375 285.742188 C 119.5 284.445312 117.679688 283.09375 115.898438 281.6875 C 114.117188 280.28125 112.375 278.828125 110.679688 277.320312 C 108.984375 275.8125 107.335938 274.257812 105.730469 272.652344 C 104.125 271.046875 102.570312 269.398438 101.0625 267.703125 C 99.554688 266.007812 98.101562 264.269531 96.695312 262.488281 C 95.289062 260.707031 93.9375 258.882812 92.640625 257.023438 C 91.34375 255.164062 90.101562 253.265625 88.914062 251.332031 C 87.730469 249.398438 86.601562 247.429688 85.53125 245.429688 C 84.460938 243.429688 83.449219 241.398438 82.496094 239.339844 C 81.546875 237.277344 80.65625 235.191406 79.828125 233.082031 C 79 230.96875 78.234375 228.832031 77.53125 226.675781 C 76.832031 224.519531 76.191406 222.34375 75.617188 220.148438 C 75.042969 217.953125 74.53125 215.742188 74.089844 213.519531 C 73.644531 211.292969 73.265625 209.058594 72.953125 206.8125 C 72.640625 204.5625 72.390625 202.308594 72.210938 200.046875 C 72.03125 197.785156 71.917969 195.519531 71.871094 193.253906 C 71.824219 190.984375 71.84375 188.714844 71.929688 186.449219 C 72.015625 184.183594 72.167969 181.917969 72.386719 179.660156 C 72.605469 177.402344 72.894531 175.152344 73.246094 172.910156 C 73.597656 170.671875 74.015625 168.441406 74.496094 166.226562 C 74.980469 164.007812 75.527344 161.808594 76.140625 159.621094 C 76.753906 157.4375 77.429688 155.273438 78.167969 153.128906 C 78.910156 150.984375 79.710938 148.863281 80.574219 146.765625 C 81.441406 144.667969 82.367188 142.597656 83.351562 140.554688 C 84.339844 138.511719 85.382812 136.5 86.488281 134.515625 C 87.59375 132.535156 88.753906 130.585938 89.976562 128.675781 C 91.195312 126.761719 92.46875 124.886719 93.796875 123.046875 C 95.128906 121.210938 96.511719 119.410156 97.945312 117.65625 C 99.382812 115.898438 100.867188 114.183594 102.40625 112.515625 C 103.941406 110.84375 105.523438 109.222656 107.15625 107.644531 C 108.789062 106.070312 110.464844 104.542969 112.1875 103.066406 C 113.910156 101.589844 115.671875 100.164062 117.476562 98.789062 C 119.285156 97.414062 121.128906 96.09375 123.011719 94.828125 C 124.894531 93.5625 126.8125 92.355469 128.765625 91.203125 C 130.722656 90.050781 132.707031 88.957031 134.726562 87.921875 C 136.746094 86.886719 138.792969 85.910156 140.867188 84.996094 C 142.945312 84.078125 145.046875 83.226562 147.171875 82.433594 C 149.296875 81.644531 151.445312 80.914062 153.617188 80.25 C 155.785156 79.585938 157.972656 78.984375 160.175781 78.449219 C 162.378906 77.910156 164.597656 77.441406 166.832031 77.035156 C 169.0625 76.628906 171.304688 76.289062 173.558594 76.015625 C 175.808594 75.742188 178.066406 75.53125 180.332031 75.390625 C 182.597656 75.25 184.863281 75.175781 187.132812 75.167969 C 189.402344 75.160156 191.667969 75.21875 193.933594 75.34375 C 196.199219 75.472656 198.457031 75.664062 200.710938 75.921875 C 202.964844 76.179688 205.210938 76.503906 207.445312 76.894531 C 209.679688 77.285156 211.902344 77.742188 214.109375 78.261719 C 216.320312 78.785156 218.507812 79.371094 220.683594 80.019531 C 222.855469 80.671875 225.007812 81.382812 227.140625 82.160156 C 229.273438 82.9375 231.378906 83.777344 233.460938 84.679688 C 235.542969 85.578125 237.597656 86.539062 239.625 87.5625 C 241.648438 88.582031 243.644531 89.664062 245.605469 90.804688 C 247.566406 91.941406 249.496094 93.136719 251.386719 94.390625 C 253.277344 95.644531 255.132812 96.949219 256.945312 98.3125 C 258.761719 99.671875 260.535156 101.085938 262.265625 102.550781 C 264 104.019531 265.683594 105.53125 267.328125 107.097656 C 268.96875 108.664062 270.566406 110.273438 272.113281 111.933594 C 273.660156 113.59375 275.160156 115.296875 276.605469 117.042969 C 278.054688 118.789062 279.449219 120.578125 280.792969 122.40625 C 282.132812 124.234375 283.421875 126.101562 284.652344 128.007812 C 285.886719 129.914062 287.0625 131.851562 288.179688 133.828125 C 289.296875 135.800781 290.359375 137.804688 291.359375 139.84375 C 292.359375 141.878906 293.296875 143.941406 294.175781 146.035156 C 295.054688 148.125 295.871094 150.242188 296.628906 152.382812 C 297.382812 154.519531 298.074219 156.679688 298.699219 158.859375 C 299.328125 161.042969 299.890625 163.238281 300.386719 165.453125 C 300.886719 167.664062 301.320312 169.890625 301.6875 172.128906 C 302.054688 174.367188 302.355469 176.617188 302.589844 178.875 C 302.824219 181.128906 302.992188 183.390625 303.09375 185.65625 C 303.195312 187.925781 303.230469 190.191406 303.199219 192.460938 C 303.167969 194.730469 303.070312 196.996094 302.90625 199.257812 C 302.738281 201.519531 302.507812 203.777344 302.210938 206.027344 C 301.914062 208.273438 301.550781 210.511719 301.121094 212.742188 C 300.691406 214.96875 300.195312 217.183594 299.636719 219.382812 C 299.078125 221.578125 298.453125 223.761719 297.765625 225.921875 C 297.078125 228.085938 296.328125 230.222656 295.515625 232.34375 C 294.699219 234.460938 293.824219 236.550781 292.886719 238.617188 C 291.949219 240.683594 290.953125 242.722656 289.898438 244.730469 C 288.839844 246.738281 287.726562 248.710938 286.554688 250.652344 C 285.378906 252.597656 284.152344 254.503906 282.867188 256.371094 C 281.582031 258.242188 280.242188 260.070312 278.851562 261.863281 C 277.457031 263.652344 276.011719 265.402344 274.515625 267.109375 C 273.023438 268.816406 271.476562 270.476562 269.882812 272.089844 C 268.289062 273.707031 266.652344 275.273438 264.964844 276.792969 C 263.28125 278.308594 261.550781 279.777344 259.78125 281.195312 C 258.007812 282.613281 256.195312 283.976562 254.34375 285.285156 C 252.492188 286.597656 250.601562 287.851562 248.675781 289.050781 C 246.75 290.25 244.792969 291.390625 242.796875 292.476562 C 240.804688 293.558594 238.78125 294.585938 236.726562 295.550781 C 234.675781 296.515625 232.59375 297.417969 230.488281 298.261719 C 228.382812 299.101562 226.253906 299.882812 224.101562 300.601562 Z M 224.179688 300.496094 "/>
</g>
</g>
</svg>
