<?xml version="1.0" encoding="UTF-8"?>
<svg xmlns="http://www.w3.org/2000/svg" xmlns:xlink="http://www.w3.org/1999/xlink" width="375pt" height="374.999991pt" viewBox="0 0 375 374.999991" version="1.2">
<defs>
<clipPath id="clip1">
  <path d="M 37.5 37.5 L 337.5 37.5 L 337.5 337.5 L 37.5 337.5 Z M 37.5 37.5 "/>
</clipPath>
</defs>
<g id="surface1">
<g clip-path="url(#clip1)" clip-rule="nonzero">
<path style=" stroke:none;fill-rule:nonzero;fill:rgb(81.17981%,41.569519%,0%);fill-opacity:1;" d="M 304.167969 37.5 L 70.832031 37.5 C 52.417969 37.5 37.5 52.417969 37.5 70.832031 L 37.5 304.167969 C 37.5 322.582031 52.417969 337.5 70.832031 337.5 L 304.167969 337.5 C 322.582031 337.5 337.5 322.582031 337.5 304.167969 L 337.5 70.832031 C 337.5 52.417969 322.582031 37.5 304.167969 37.5 Z M 137.5 270.832031 L 95.449219 270.832031 L 95.449219 154.167969 L 137.5 154.167969 Z M 115.734375 132.785156 C 102.882812 132.785156 94.300781 124.214844 94.300781 112.785156 C 94.300781 101.351562 102.867188 92.785156 117.148438 92.785156 C 130 92.785156 138.582031 101.351562 138.582031 112.785156 C 138.582031 124.214844 130.015625 132.785156 115.734375 132.785156 Z M 287.5 270.832031 L 246.800781 270.832031 L 246.800781 207.066406 C 246.800781 189.433594 235.949219 185.367188 231.882812 185.367188 C 227.816406 185.367188 214.25 188.082031 214.25 207.066406 C 214.25 209.785156 214.25 270.832031 214.25 270.832031 L 172.199219 270.832031 L 172.199219 154.167969 L 214.25 154.167969 L 214.25 170.449219 C 219.667969 160.949219 230.515625 154.167969 250.867188 154.167969 C 271.214844 154.167969 287.5 170.449219 287.5 207.066406 Z M 287.5 270.832031 "/>
</g>
</g>
</svg>
