<?xml version="1.0" encoding="UTF-8"?>
<svg xmlns="http://www.w3.org/2000/svg" xmlns:xlink="http://www.w3.org/1999/xlink" width="375pt" height="374.999991pt" viewBox="0 0 375 374.999991" version="1.2">
<defs>
<clipPath id="clip1">
  <path d="M 38 37.5 L 337.5 37.5 L 337.5 337.5 L 38 337.5 Z M 38 37.5 "/>
</clipPath>
</defs>
<g id="surface1">
<g clip-path="url(#clip1)" clip-rule="nonzero">
<path style=" stroke:none;fill-rule:nonzero;fill:rgb(255,255,255);fill-opacity:1;" d="M 187.824219 37.824219 C 124.429688 37.824219 70.191406 77.320312 48.40625 133.074219 C 48.230469 133.476562 48.09375 133.894531 48 134.324219 C 47.90625 134.753906 47.855469 135.1875 47.847656 135.628906 C 47.84375 136.066406 47.878906 136.503906 47.960938 136.933594 C 48.046875 137.367188 48.171875 137.785156 48.335938 138.191406 C 48.503906 138.601562 48.710938 138.984375 48.957031 139.351562 C 49.203125 139.714844 49.480469 140.050781 49.796875 140.359375 C 50.109375 140.667969 50.453125 140.941406 50.820312 141.179688 C 51.191406 141.421875 51.578125 141.621094 51.988281 141.78125 C 52.398438 141.9375 52.820312 142.054688 53.253906 142.132812 C 53.6875 142.207031 54.125 142.234375 54.5625 142.222656 C 55.003906 142.207031 55.4375 142.148438 55.867188 142.046875 C 56.292969 141.945312 56.707031 141.800781 57.105469 141.617188 C 57.503906 141.429688 57.878906 141.207031 58.234375 140.945312 C 58.585938 140.683594 58.910156 140.386719 59.203125 140.058594 C 59.496094 139.730469 59.753906 139.378906 59.976562 139 C 60.199219 138.617188 60.378906 138.21875 60.519531 137.804688 C 80.398438 86.925781 129.832031 50.839844 187.824219 50.839844 C 263.375 50.839844 324.484375 111.949219 324.484375 187.5 C 324.484375 263.050781 263.375 324.160156 187.824219 324.160156 C 129.832031 324.160156 80.398438 288.074219 60.519531 237.195312 C 60.378906 236.78125 60.199219 236.382812 59.976562 236.003906 C 59.753906 235.621094 59.496094 235.269531 59.203125 234.941406 C 58.910156 234.613281 58.585938 234.320312 58.234375 234.054688 C 57.878906 233.792969 57.503906 233.570312 57.105469 233.382812 C 56.707031 233.199219 56.292969 233.054688 55.867188 232.953125 C 55.4375 232.851562 55.003906 232.792969 54.5625 232.777344 C 54.125 232.765625 53.6875 232.796875 53.253906 232.871094 C 52.820312 232.945312 52.398438 233.0625 51.988281 233.222656 C 51.578125 233.382812 51.191406 233.582031 50.820312 233.820312 C 50.453125 234.058594 50.109375 234.332031 49.796875 234.640625 C 49.480469 234.949219 49.203125 235.285156 48.957031 235.648438 C 48.710938 236.015625 48.503906 236.402344 48.335938 236.808594 C 48.171875 237.214844 48.046875 237.632812 47.960938 238.066406 C 47.878906 238.496094 47.84375 238.933594 47.847656 239.375 C 47.855469 239.8125 47.90625 240.246094 48 240.675781 C 48.09375 241.105469 48.230469 241.523438 48.40625 241.925781 C 70.191406 297.679688 124.429688 337.175781 187.824219 337.175781 C 270.410156 337.175781 337.5 270.085938 337.5 187.5 C 337.5 104.914062 270.410156 37.824219 187.824219 37.824219 Z M 194.269531 128.867188 C 193.621094 128.867188 192.988281 128.964844 192.371094 129.152344 C 191.75 129.339844 191.171875 129.617188 190.636719 129.976562 C 190.097656 130.339844 189.625 130.773438 189.21875 131.273438 C 188.8125 131.777344 188.484375 132.328125 188.242188 132.925781 C 187.996094 133.527344 187.847656 134.148438 187.789062 134.792969 C 187.730469 135.4375 187.769531 136.078125 187.902344 136.710938 C 188.035156 137.34375 188.257812 137.945312 188.566406 138.511719 C 188.878906 139.078125 189.269531 139.589844 189.730469 140.039062 L 230.683594 180.992188 L 44.660156 180.992188 C 44.226562 180.988281 43.800781 181.023438 43.375 181.101562 C 42.953125 181.179688 42.539062 181.300781 42.140625 181.460938 C 41.738281 181.621094 41.359375 181.820312 41 182.058594 C 40.636719 182.292969 40.304688 182.5625 39.996094 182.867188 C 39.691406 183.167969 39.414062 183.5 39.175781 183.855469 C 38.933594 184.214844 38.730469 184.589844 38.5625 184.988281 C 38.394531 185.386719 38.269531 185.796875 38.183594 186.21875 C 38.101562 186.640625 38.058594 187.070312 38.058594 187.5 C 38.058594 187.929688 38.101562 188.359375 38.183594 188.78125 C 38.269531 189.203125 38.394531 189.613281 38.5625 190.011719 C 38.730469 190.410156 38.933594 190.789062 39.175781 191.144531 C 39.414062 191.5 39.691406 191.832031 39.996094 192.132812 C 40.304688 192.4375 40.636719 192.707031 41 192.945312 C 41.359375 193.179688 41.738281 193.378906 42.140625 193.539062 C 42.539062 193.699219 42.953125 193.820312 43.375 193.898438 C 43.800781 193.976562 44.226562 194.015625 44.660156 194.007812 L 230.683594 194.007812 L 189.730469 234.960938 C 189.417969 235.257812 189.140625 235.585938 188.894531 235.941406 C 188.644531 236.296875 188.4375 236.675781 188.265625 237.074219 C 188.09375 237.46875 187.960938 237.878906 187.871094 238.304688 C 187.78125 238.726562 187.734375 239.15625 187.730469 239.589844 C 187.726562 240.019531 187.765625 240.449219 187.847656 240.875 C 187.929688 241.300781 188.050781 241.714844 188.214844 242.113281 C 188.378906 242.515625 188.578125 242.894531 188.820312 243.257812 C 189.058594 243.617188 189.332031 243.949219 189.636719 244.257812 C 189.945312 244.5625 190.277344 244.835938 190.636719 245.074219 C 190.996094 245.316406 191.378906 245.515625 191.78125 245.679688 C 192.179688 245.84375 192.59375 245.964844 193.019531 246.046875 C 193.445312 246.128906 193.871094 246.167969 194.304688 246.164062 C 194.738281 246.15625 195.167969 246.109375 195.589844 246.019531 C 196.011719 245.929688 196.425781 245.800781 196.820312 245.628906 C 197.21875 245.457031 197.59375 245.246094 197.949219 245 C 198.304688 244.753906 198.632812 244.472656 198.933594 244.160156 L 250.996094 192.101562 C 251.296875 191.800781 251.566406 191.46875 251.804688 191.113281 C 252.042969 190.761719 252.242188 190.386719 252.40625 189.988281 C 252.566406 189.59375 252.691406 189.1875 252.773438 188.769531 C 252.859375 188.351562 252.898438 187.925781 252.898438 187.5 C 252.898438 187.074219 252.859375 186.648438 252.773438 186.230469 C 252.691406 185.8125 252.566406 185.40625 252.40625 185.011719 C 252.242188 184.617188 252.042969 184.242188 251.804688 183.886719 C 251.566406 183.53125 251.296875 183.203125 250.996094 182.898438 L 198.933594 130.839844 C 198.320312 130.207031 197.609375 129.722656 196.800781 129.382812 C 195.992188 129.039062 195.148438 128.867188 194.269531 128.867188 Z M 194.269531 128.867188 "/>
</g>
</g>
</svg>
