<?xml version="1.0" encoding="UTF-8"?>
<svg xmlns="http://www.w3.org/2000/svg" xmlns:xlink="http://www.w3.org/1999/xlink" width="375pt" height="374.999991pt" viewBox="0 0 375 374.999991" version="1.2">
<defs>
<clipPath id="clip1">
  <path d="M 39.917969 39.917969 L 335.417969 39.917969 L 335.417969 335.417969 L 39.917969 335.417969 Z M 39.917969 39.917969 "/>
</clipPath>
</defs>
<g id="surface1">
<g clip-path="url(#clip1)" clip-rule="nonzero">
<path style=" stroke:none;fill-rule:nonzero;fill:rgb(100%,100%,100%);fill-opacity:1;" d="M 187.667969 39.917969 C 106.066406 39.917969 39.917969 106.066406 39.917969 187.667969 C 39.917969 269.269531 106.066406 335.417969 187.667969 335.417969 C 269.269531 335.417969 335.417969 269.269531 335.417969 187.667969 C 335.417969 106.066406 269.269531 39.917969 187.667969 39.917969 Z M 187.667969 80.550781 C 214.1875 80.550781 235.6875 102.046875 235.6875 128.566406 C 235.6875 155.089844 214.1875 176.585938 187.667969 176.585938 C 161.148438 176.585938 139.648438 155.089844 139.648438 128.566406 C 139.648438 102.046875 161.148438 80.550781 187.667969 80.550781 Z M 187.667969 305.867188 C 146.742188 305.867188 110.691406 285.066406 89.472656 253.460938 C 106.035156 229.378906 158.796875 217.21875 187.667969 217.21875 C 216.539062 217.21875 269.300781 229.378906 285.863281 253.460938 C 264.644531 285.066406 228.59375 305.867188 187.667969 305.867188 Z M 187.667969 305.867188 "/>
</g>
</g>
</svg>
