<?xml version="1.0" encoding="UTF-8"?>
<svg xmlns="http://www.w3.org/2000/svg" xmlns:xlink="http://www.w3.org/1999/xlink" width="375pt" height="374.999991pt" viewBox="0 0 375 374.999991" version="1.2">
<defs>
<clipPath id="clip1">
  <path d="M 73.125 37.5 L 301.875 37.5 L 301.875 337.5 L 73.125 337.5 Z M 73.125 37.5 "/>
</clipPath>
</defs>
<g id="surface1">
<g clip-path="url(#clip1)" clip-rule="nonzero">
<path style=" stroke:none;fill-rule:nonzero;fill:rgb(100%,100%,100%);fill-opacity:1;" d="M 187.5 37.5 C 140.015625 37.5 101.785156 75.730469 101.785156 123.214844 L 101.785156 137.5 C 86.070312 137.5 73.214844 150.355469 73.214844 166.070312 L 73.214844 308.929688 C 73.214844 324.644531 86.070312 337.5 101.785156 337.5 L 273.214844 337.5 C 288.929688 337.5 301.785156 324.644531 301.785156 308.929688 L 301.785156 166.070312 C 301.785156 150.355469 288.929688 137.5 273.214844 137.5 L 273.214844 123.214844 C 273.214844 75.730469 234.984375 37.5 187.5 37.5 Z M 187.5 66.070312 C 220.015625 66.070312 244.644531 90.699219 244.644531 123.214844 L 244.644531 137.5 L 130.355469 137.5 L 130.355469 123.214844 C 130.355469 90.699219 154.984375 66.070312 187.5 66.070312 Z M 130.355469 223.214844 C 138.214844 223.214844 144.644531 229.644531 144.644531 237.5 C 144.644531 245.355469 138.214844 251.785156 130.355469 251.785156 C 122.5 251.785156 116.070312 245.355469 116.070312 237.5 C 116.070312 229.644531 122.5 223.214844 130.355469 223.214844 Z M 187.5 223.214844 C 195.355469 223.214844 201.785156 229.644531 201.785156 237.5 C 201.785156 245.355469 195.355469 251.785156 187.5 251.785156 C 179.644531 251.785156 173.214844 245.355469 173.214844 237.5 C 173.214844 229.644531 179.644531 223.214844 187.5 223.214844 Z M 244.644531 223.214844 C 252.5 223.214844 258.929688 229.644531 258.929688 237.5 C 258.929688 245.355469 252.5 251.785156 244.644531 251.785156 C 236.785156 251.785156 230.355469 245.355469 230.355469 237.5 C 230.355469 229.644531 236.785156 223.214844 244.644531 223.214844 Z M 244.644531 223.214844 "/>
</g>
</g>
</svg>
