<?xml version="1.0" encoding="UTF-8"?>
<svg xmlns="http://www.w3.org/2000/svg" xmlns:xlink="http://www.w3.org/1999/xlink" width="375pt" height="374.999991pt" viewBox="0 0 375 374.999991" version="1.2">
<defs>
<clipPath id="clip1">
  <path d="M 38 38 L 337.5 38 L 337.5 337 L 38 337 Z M 38 38 "/>
</clipPath>
</defs>
<g id="surface1">
<path style=" stroke:none;fill-rule:nonzero;fill:rgb(100%,100%,100%);fill-opacity:1;" d="M 132.105469 162.605469 L 44.96875 162.605469 C 41.53125 162.605469 38.746094 159.816406 38.746094 156.378906 L 38.746094 69.242188 C 38.746094 65.808594 41.53125 63.019531 44.96875 63.019531 C 48.40625 63.019531 51.191406 65.808594 51.191406 69.242188 L 51.191406 150.15625 L 132.105469 150.15625 C 135.542969 150.15625 138.328125 152.945312 138.328125 156.378906 C 138.328125 159.816406 135.542969 162.605469 132.105469 162.605469 Z M 132.105469 162.605469 "/>
<g clip-path="url(#clip1)" clip-rule="nonzero">
<path style=" stroke:none;fill-rule:nonzero;fill:rgb(100%,100%,100%);fill-opacity:1;" d="M 188.121094 336.878906 C 148.25 336.878906 110.746094 321.328125 82.523438 293.097656 C 80.097656 290.671875 80.097656 286.722656 82.523438 284.296875 C 84.953125 281.871094 88.898438 281.871094 91.324219 284.296875 C 117.207031 310.175781 151.574219 324.429688 188.121094 324.429688 C 263.621094 324.429688 325.050781 262.996094 325.050781 187.5 C 325.050781 112.003906 263.621094 50.570312 188.121094 50.570312 C 125.074219 50.570312 66.117188 96.703125 51.007812 157.875 C 50.183594 161.210938 46.835938 163.238281 43.476562 162.417969 C 40.140625 161.59375 38.097656 158.222656 38.929688 154.886719 C 55.375 88.3125 119.507812 38.121094 188.121094 38.121094 C 270.492188 38.121094 337.5 105.128906 337.5 187.5 C 337.5 269.871094 270.492188 336.878906 188.121094 336.878906 Z M 188.121094 336.878906 "/>
</g>
</g>
</svg>
