<?xml version="1.0" encoding="UTF-8"?>
<svg xmlns="http://www.w3.org/2000/svg" xmlns:xlink="http://www.w3.org/1999/xlink" width="375pt" height="374.999991pt" viewBox="0 0 375 374.999991" version="1.2">
<defs>
<clipPath id="clip1">
  <path d="M 39 37.5 L 336 37.5 L 336 337.5 L 39 337.5 Z M 39 37.5 "/>
</clipPath>
</defs>
<g id="surface1">
<g clip-path="url(#clip1)" clip-rule="nonzero">
<path style=" stroke:none;fill-rule:nonzero;fill:rgb(100%,100%,100%);fill-opacity:1;" d="M 270.363281 207.464844 C 259.320312 207.464844 248.914062 210.246094 239.792969 215.121094 C 226.015625 204.328125 209.921875 196.398438 192.394531 192.195312 C 222.007812 180.414062 242.996094 151.484375 242.996094 117.722656 C 242.996094 73.535156 207.046875 37.582031 162.855469 37.582031 C 118.667969 37.582031 82.714844 73.535156 82.714844 117.722656 C 82.714844 151.703125 103.980469 180.789062 133.894531 192.425781 C 79.75 205.835938 39.472656 254.980469 39.472656 313.417969 L 48.542969 313.417969 C 48.542969 249.703125 100.160156 197.863281 163.613281 197.863281 C 189.0625 197.863281 212.59375 206.226562 231.664062 220.332031 C 215.664062 232.210938 205.234375 251.179688 205.234375 272.589844 C 205.234375 308.496094 234.449219 337.710938 270.359375 337.710938 C 306.265625 337.710938 335.480469 308.496094 335.480469 272.589844 C 335.484375 236.683594 306.269531 207.464844 270.363281 207.464844 Z M 162.855469 188.792969 C 123.667969 188.792969 91.789062 156.914062 91.789062 117.726562 C 91.789062 78.539062 123.667969 46.65625 162.855469 46.65625 C 202.042969 46.65625 233.925781 78.539062 233.925781 117.726562 C 233.925781 156.914062 202.046875 188.792969 162.855469 188.792969 Z M 270.363281 328.640625 C 239.453125 328.640625 214.308594 303.5 214.308594 272.59375 C 214.308594 241.683594 239.453125 216.542969 270.363281 216.542969 C 301.273438 216.542969 326.410156 241.683594 326.410156 272.59375 C 326.410156 303.496094 301.269531 328.640625 270.363281 328.640625 Z M 270.363281 328.640625 "/>
</g>
<path style=" stroke:none;fill-rule:nonzero;fill:rgb(100%,100%,100%);fill-opacity:1;" d="M 262.015625 286.542969 L 241.183594 265.707031 L 234.769531 272.121094 L 262.015625 299.375 L 305.953125 255.433594 L 299.539062 249.019531 Z M 262.015625 286.542969 "/>
</g>
</svg>
