<?xml version="1.0" encoding="UTF-8"?>
<svg xmlns="http://www.w3.org/2000/svg" xmlns:xlink="http://www.w3.org/1999/xlink" width="375pt" height="374.999991pt" viewBox="0 0 375 374.999991" version="1.2">
<defs>
<clipPath id="clip1">
  <path d="M 37.5 78 L 337.5 78 L 337.5 299 L 37.5 299 Z M 37.5 78 "/>
</clipPath>
</defs>
<g id="surface1">
<g clip-path="url(#clip1)" clip-rule="nonzero">
<path style=" stroke:none;fill-rule:nonzero;fill:rgb(100%,100%,100%);fill-opacity:1;" d="M 125 248.761719 C 121.550781 248.761719 118.75 251.5625 118.75 255.011719 C 118.75 258.460938 121.550781 261.261719 125 261.261719 C 128.449219 261.261719 131.25 258.460938 131.25 255.011719 C 131.25 251.5625 128.449219 248.761719 125 248.761719 Z M 318.886719 105.023438 L 307.773438 105.023438 C 310.875 100.5625 315.050781 93.960938 317.800781 89.5625 C 318.851562 87.863281 319.039062 85.761719 318.289062 83.914062 C 317.539062 82.0625 315.949219 80.6875 314.011719 80.199219 C 296.585938 75.835938 278.238281 81.273438 266.074219 94.375 C 263.898438 96.726562 260.4375 100.398438 256.023438 105.011719 L 81.25 105.011719 C 57.125 105.011719 37.5 124.636719 37.5 148.761719 C 37.5 152.210938 40.300781 155.011719 43.75 155.011719 L 193.75 155.011719 C 197.199219 155.011719 199.949219 152.414062 199.960938 148.960938 C 200.050781 148.789062 202.074219 145.601562 217.625 143.300781 C 182.25 177.125 133.960938 219.238281 90.210938 243.449219 C 82.5 247.726562 77.125 255.136719 75.511719 263.789062 C 73.886719 272.449219 76.199219 281.300781 81.851562 288.074219 L 81.875 288.113281 C 87.675781 295.074219 96.050781 298.773438 104.550781 298.773438 C 109.539062 298.773438 114.5625 297.5 119.136719 294.851562 C 157.226562 272.9375 229.949219 214.664062 283.351562 141.289062 C 289.9375 141.4375 296.300781 141.625 302.050781 141.789062 C 308.351562 141.988281 313.976562 142.164062 318.5625 142.238281 L 318.886719 142.238281 C 323.800781 142.238281 328.425781 140.351562 331.9375 136.914062 C 335.523438 133.375 337.5 128.664062 337.5 123.636719 C 337.5 113.375 329.148438 105.023438 318.886719 105.023438 Z M 189.175781 142.511719 L 50.625 142.511719 C 53.539062 128.261719 66.148438 117.511719 81.25 117.511719 L 243.835938 117.511719 C 240.136719 121.261719 236.199219 125.199219 232.0625 129.273438 C 213.300781 130.460938 194.738281 133.1875 189.175781 142.511719 Z M 290.726562 107.949219 C 285.601562 116.125 280.335938 123.988281 275.074219 131.300781 C 275.050781 131.324219 275.0625 131.375 275.039062 131.398438 C 222.710938 204.363281 150.5 262.398438 112.898438 284.039062 C 105.773438 288.136719 96.773438 286.488281 91.476562 280.113281 L 91.449219 280.074219 C 88.199219 276.164062 86.863281 271.074219 87.800781 266.101562 C 88.738281 261.125 91.824219 256.851562 96.273438 254.386719 C 171.101562 212.976562 258.488281 120.925781 275.238281 102.886719 C 282.210938 95.375 291.925781 91.25 301.949219 91.226562 C 298.960938 95.835938 296.351562 99.726562 295.574219 100.601562 C 295.210938 100.960938 294.898438 101.351562 294.636719 101.789062 C 293.386719 103.863281 292.023438 105.875 290.738281 107.9375 C 290.738281 107.949219 290.726562 107.949219 290.726562 107.949219 Z M 323.175781 127.976562 C 321.988281 129.136719 320.4375 129.523438 318.773438 129.726562 C 314.238281 129.648438 308.664062 129.476562 302.425781 129.289062 C 299.101562 129.199219 295.585938 129.085938 291.9375 128.988281 C 291.976562 128.9375 292 128.886719 292.039062 128.835938 C 294.5625 125.125 297 121.363281 299.414062 117.585938 C 299.4375 117.5625 299.449219 117.523438 299.476562 117.5 L 318.886719 117.5 C 322.261719 117.5 325 120.238281 325 123.613281 C 325 125.273438 324.351562 126.8125 323.175781 127.976562 Z M 275 111.261719 C 271.550781 111.261719 268.75 114.0625 268.75 117.511719 C 268.75 120.960938 271.550781 123.761719 275 123.761719 C 278.449219 123.761719 281.25 120.960938 281.25 117.511719 C 281.25 114.0625 278.449219 111.261719 275 111.261719 Z M 212.5 180.011719 C 209.050781 180.011719 206.25 182.8125 206.25 186.261719 C 206.25 189.710938 209.050781 192.511719 212.5 192.511719 C 215.949219 192.511719 218.75 189.710938 218.75 186.261719 C 218.75 182.8125 215.949219 180.011719 212.5 180.011719 Z M 212.5 180.011719 "/>
</g>
</g>
</svg>
