<?xml version="1.0" encoding="UTF-8"?>
<svg xmlns="http://www.w3.org/2000/svg" xmlns:xlink="http://www.w3.org/1999/xlink" width="375pt" height="374.999991pt" viewBox="0 0 375 374.999991" version="1.2">
<defs>
<clipPath id="clip1">
  <path d="M 114.1875 37.5 L 261 37.5 L 261 337 L 114.1875 337 Z M 114.1875 37.5 "/>
</clipPath>
</defs>
<g id="surface1">
<g clip-path="url(#clip1)" clip-rule="nonzero">
<path style=" stroke:none;fill-rule:nonzero;fill:rgb(100%,100%,100%);fill-opacity:1;" d="M 147.660156 37.410156 C 147.222656 37.417969 146.789062 37.464844 146.363281 37.558594 C 145.9375 37.648438 145.523438 37.78125 145.125 37.953125 C 144.722656 38.125 144.34375 38.335938 143.984375 38.582031 C 143.625 38.828125 143.292969 39.109375 142.988281 39.421875 C 142.683594 39.734375 142.414062 40.074219 142.175781 40.4375 C 141.941406 40.804688 141.742188 41.1875 141.578125 41.59375 C 141.417969 41.996094 141.296875 42.414062 141.21875 42.84375 C 141.140625 43.269531 141.101562 43.703125 141.109375 44.136719 L 141.109375 57.410156 L 121.144531 57.410156 C 120.6875 57.410156 120.230469 57.460938 119.78125 57.554688 C 119.328125 57.648438 118.894531 57.789062 118.472656 57.972656 C 118.050781 58.15625 117.652344 58.382812 117.277344 58.648438 C 116.902344 58.917969 116.5625 59.21875 116.25 59.558594 C 115.9375 59.894531 115.664062 60.261719 115.429688 60.65625 C 115.195312 61.050781 115 61.464844 114.851562 61.902344 C 114.703125 62.335938 114.601562 62.78125 114.542969 63.234375 C 114.488281 63.691406 114.480469 64.148438 114.519531 64.605469 L 120.601562 137.421875 C 121.066406 143.019531 122.953125 148.410156 126.070312 153.078125 L 129.984375 158.925781 C 129.984375 158.929688 129.984375 158.933594 129.984375 158.9375 C 132.898438 163.296875 134.453125 168.414062 134.453125 173.664062 L 134.453125 281.128906 C 134.453125 310.230469 158.242188 335.308594 187.492188 336.183594 C 217.527344 337.085938 240.921875 312.636719 240.921875 283.089844 L 240.921875 173.652344 C 240.921875 168.410156 242.472656 163.292969 245.390625 158.925781 L 249.304688 153.066406 C 252.417969 148.402344 254.308594 143.019531 254.773438 137.421875 L 254.773438 137.40625 L 260.855469 64.605469 C 260.894531 64.148438 260.886719 63.691406 260.832031 63.234375 C 260.773438 62.78125 260.671875 62.335938 260.523438 61.902344 C 260.375 61.464844 260.179688 61.050781 259.945312 60.65625 C 259.710938 60.261719 259.4375 59.894531 259.125 59.558594 C 258.8125 59.21875 258.472656 58.917969 258.097656 58.648438 C 257.722656 58.382812 257.324219 58.15625 256.902344 57.972656 C 256.480469 57.789062 256.046875 57.648438 255.59375 57.554688 C 255.144531 57.460938 254.6875 57.410156 254.230469 57.410156 L 234.265625 57.410156 L 234.265625 44.136719 C 234.273438 43.691406 234.234375 43.253906 234.152344 42.816406 C 234.070312 42.378906 233.945312 41.957031 233.777344 41.546875 C 233.609375 41.132812 233.402344 40.742188 233.15625 40.375 C 232.910156 40.003906 232.628906 39.660156 232.3125 39.347656 C 232 39.035156 231.65625 38.753906 231.285156 38.511719 C 230.914062 38.265625 230.519531 38.058594 230.109375 37.894531 C 229.695312 37.726562 229.269531 37.601562 228.832031 37.519531 C 228.394531 37.441406 227.953125 37.402344 227.507812 37.410156 C 227.070312 37.417969 226.640625 37.464844 226.214844 37.558594 C 225.789062 37.648438 225.375 37.78125 224.972656 37.953125 C 224.570312 38.125 224.191406 38.335938 223.832031 38.582031 C 223.472656 38.828125 223.140625 39.109375 222.839844 39.421875 C 222.535156 39.734375 222.261719 40.074219 222.027344 40.4375 C 221.789062 40.804688 221.589844 41.1875 221.429688 41.59375 C 221.265625 41.996094 221.148438 42.414062 221.066406 42.84375 C 220.988281 43.269531 220.953125 43.703125 220.957031 44.136719 L 220.957031 57.410156 L 207.648438 57.410156 L 207.648438 44.136719 C 207.65625 43.691406 207.617188 43.253906 207.535156 42.816406 C 207.453125 42.378906 207.328125 41.957031 207.160156 41.546875 C 206.992188 41.132812 206.785156 40.742188 206.539062 40.375 C 206.292969 40.003906 206.011719 39.660156 205.695312 39.347656 C 205.382812 39.035156 205.039062 38.753906 204.667969 38.511719 C 204.296875 38.265625 203.902344 38.058594 203.492188 37.894531 C 203.078125 37.726562 202.652344 37.601562 202.214844 37.519531 C 201.777344 37.441406 201.335938 37.402344 200.890625 37.410156 C 200.457031 37.417969 200.023438 37.464844 199.597656 37.558594 C 199.171875 37.648438 198.757812 37.78125 198.355469 37.953125 C 197.957031 38.125 197.574219 38.335938 197.214844 38.582031 C 196.855469 38.828125 196.527344 39.109375 196.222656 39.421875 C 195.917969 39.734375 195.648438 40.074219 195.410156 40.4375 C 195.171875 40.804688 194.972656 41.1875 194.8125 41.59375 C 194.652344 41.996094 194.53125 42.414062 194.453125 42.84375 C 194.371094 43.269531 194.335938 43.703125 194.339844 44.136719 L 194.339844 57.410156 L 181.035156 57.410156 L 181.035156 44.136719 C 181.039062 43.691406 181 43.253906 180.917969 42.816406 C 180.835938 42.378906 180.710938 41.957031 180.542969 41.546875 C 180.375 41.132812 180.167969 40.742188 179.921875 40.375 C 179.675781 40.003906 179.394531 39.660156 179.082031 39.347656 C 178.765625 39.035156 178.421875 38.753906 178.050781 38.511719 C 177.679688 38.265625 177.289062 38.058594 176.875 37.894531 C 176.460938 37.726562 176.035156 37.601562 175.597656 37.519531 C 175.160156 37.441406 174.71875 37.402344 174.273438 37.410156 C 173.839844 37.417969 173.40625 37.464844 172.980469 37.558594 C 172.554688 37.648438 172.140625 37.78125 171.738281 37.953125 C 171.339844 38.125 170.960938 38.335938 170.601562 38.582031 C 170.242188 38.828125 169.910156 39.109375 169.605469 39.421875 C 169.300781 39.734375 169.03125 40.074219 168.792969 40.4375 C 168.554688 40.804688 168.355469 41.1875 168.195312 41.59375 C 168.035156 41.996094 167.914062 42.414062 167.835938 42.84375 C 167.753906 43.269531 167.71875 43.703125 167.726562 44.136719 L 167.726562 57.410156 L 154.417969 57.410156 L 154.417969 44.136719 C 154.421875 43.691406 154.382812 43.253906 154.300781 42.816406 C 154.21875 42.378906 154.09375 41.957031 153.925781 41.546875 C 153.757812 41.132812 153.550781 40.742188 153.304688 40.375 C 153.058594 40.003906 152.777344 39.660156 152.464844 39.347656 C 152.148438 39.035156 151.804688 38.753906 151.433594 38.511719 C 151.0625 38.265625 150.671875 38.058594 150.257812 37.894531 C 149.84375 37.726562 149.421875 37.601562 148.984375 37.519531 C 148.546875 37.441406 148.105469 37.402344 147.660156 37.410156 Z M 128.371094 70.6875 L 141.109375 70.6875 L 141.109375 77.324219 C 141.101562 77.761719 141.140625 78.199219 141.21875 78.632812 C 141.300781 79.0625 141.421875 79.484375 141.585938 79.890625 C 141.753906 80.300781 141.957031 80.6875 142.195312 81.054688 C 142.4375 81.421875 142.714844 81.765625 143.023438 82.078125 C 143.332031 82.390625 143.671875 82.671875 144.035156 82.917969 C 144.402344 83.164062 144.789062 83.371094 145.195312 83.539062 C 145.601562 83.710938 146.019531 83.839844 146.453125 83.925781 C 146.886719 84.011719 147.320312 84.054688 147.761719 84.054688 C 148.203125 84.054688 148.640625 84.011719 149.074219 83.925781 C 149.503906 83.839844 149.925781 83.710938 150.332031 83.539062 C 150.738281 83.371094 151.125 83.164062 151.488281 82.917969 C 151.855469 82.671875 152.191406 82.390625 152.5 82.078125 C 152.8125 81.765625 153.085938 81.421875 153.328125 81.054688 C 153.570312 80.6875 153.773438 80.300781 153.9375 79.890625 C 154.101562 79.484375 154.222656 79.0625 154.304688 78.632812 C 154.386719 78.199219 154.421875 77.761719 154.417969 77.324219 L 154.417969 70.6875 L 167.726562 70.6875 L 167.726562 77.324219 C 167.71875 77.761719 167.757812 78.199219 167.835938 78.632812 C 167.917969 79.0625 168.039062 79.484375 168.203125 79.890625 C 168.367188 80.300781 168.570312 80.6875 168.8125 81.054688 C 169.054688 81.421875 169.332031 81.765625 169.640625 82.078125 C 169.949219 82.390625 170.289062 82.667969 170.652344 82.917969 C 171.019531 83.164062 171.402344 83.371094 171.8125 83.539062 C 172.21875 83.710938 172.636719 83.839844 173.070312 83.925781 C 173.5 84.011719 173.9375 84.054688 174.378906 84.054688 C 174.820312 84.054688 175.257812 84.011719 175.6875 83.925781 C 176.121094 83.839844 176.539062 83.710938 176.949219 83.539062 C 177.355469 83.371094 177.742188 83.164062 178.105469 82.917969 C 178.472656 82.667969 178.808594 82.390625 179.117188 82.078125 C 179.425781 81.765625 179.703125 81.421875 179.945312 81.054688 C 180.1875 80.6875 180.390625 80.300781 180.554688 79.890625 C 180.71875 79.484375 180.839844 79.0625 180.921875 78.632812 C 181.003906 78.199219 181.039062 77.761719 181.035156 77.324219 L 181.035156 70.6875 L 194.339844 70.6875 L 194.339844 77.324219 C 194.335938 77.761719 194.371094 78.199219 194.453125 78.632812 C 194.535156 79.0625 194.65625 79.484375 194.820312 79.890625 C 194.984375 80.300781 195.1875 80.6875 195.429688 81.054688 C 195.671875 81.421875 195.949219 81.765625 196.257812 82.078125 C 196.566406 82.390625 196.902344 82.671875 197.269531 82.917969 C 197.632812 83.164062 198.019531 83.371094 198.425781 83.539062 C 198.835938 83.710938 199.253906 83.839844 199.6875 83.925781 C 200.117188 84.011719 200.554688 84.054688 200.996094 84.054688 C 201.4375 84.054688 201.875 84.011719 202.304688 83.925781 C 202.738281 83.839844 203.15625 83.710938 203.5625 83.539062 C 203.972656 83.371094 204.355469 83.164062 204.722656 82.917969 C 205.085938 82.671875 205.425781 82.390625 205.734375 82.078125 C 206.042969 81.765625 206.320312 81.421875 206.5625 81.054688 C 206.804688 80.6875 207.007812 80.300781 207.171875 79.890625 C 207.335938 79.484375 207.457031 79.0625 207.539062 78.632812 C 207.617188 78.199219 207.65625 77.761719 207.648438 77.324219 L 207.648438 70.6875 L 220.957031 70.6875 L 220.957031 77.324219 C 220.953125 77.761719 220.988281 78.199219 221.070312 78.632812 C 221.152344 79.0625 221.273438 79.484375 221.4375 79.890625 C 221.601562 80.300781 221.804688 80.6875 222.046875 81.054688 C 222.289062 81.421875 222.5625 81.765625 222.875 82.078125 C 223.183594 82.390625 223.519531 82.671875 223.886719 82.917969 C 224.25 83.164062 224.636719 83.371094 225.042969 83.539062 C 225.449219 83.710938 225.871094 83.839844 226.300781 83.925781 C 226.734375 84.011719 227.171875 84.054688 227.613281 84.054688 C 228.054688 84.054688 228.488281 84.011719 228.921875 83.925781 C 229.355469 83.839844 229.773438 83.710938 230.179688 83.539062 C 230.585938 83.371094 230.972656 83.164062 231.339844 82.917969 C 231.703125 82.671875 232.042969 82.390625 232.351562 82.078125 C 232.660156 81.765625 232.9375 81.421875 233.179688 81.054688 C 233.417969 80.6875 233.621094 80.300781 233.789062 79.890625 C 233.953125 79.484375 234.074219 79.0625 234.15625 78.632812 C 234.234375 78.199219 234.273438 77.761719 234.265625 77.324219 L 234.265625 70.6875 L 247.003906 70.6875 L 243.117188 117.144531 L 132.257812 117.144531 Z M 133.363281 130.421875 L 242.011719 130.421875 L 241.519531 136.320312 C 241.238281 139.675781 240.105469 142.898438 238.230469 145.703125 L 234.320312 151.5625 C 229.945312 158.109375 227.613281 165.792969 227.613281 173.652344 L 227.613281 283.089844 C 227.613281 305.8125 210.601562 323.589844 187.882812 322.910156 C 166.148438 322.261719 147.761719 302.914062 147.761719 281.128906 L 147.761719 173.664062 C 147.761719 165.800781 145.433594 158.105469 141.054688 151.5625 L 137.144531 145.71875 C 135.273438 142.914062 134.136719 139.667969 133.855469 136.320312 Z M 187.6875 190.15625 C 173.066406 190.15625 161.070312 202.121094 161.070312 216.703125 L 161.070312 256.527344 C 161.070312 271.109375 173.066406 283.074219 187.6875 283.074219 C 202.308594 283.074219 214.304688 271.109375 214.304688 256.527344 L 214.304688 216.703125 C 214.304688 202.121094 202.308594 190.15625 187.6875 190.15625 Z M 174.378906 216.703125 C 174.378906 217.574219 174.464844 218.4375 174.636719 219.292969 C 174.804688 220.148438 175.058594 220.976562 175.390625 221.785156 C 175.726562 222.589844 176.136719 223.355469 176.621094 224.078125 C 177.109375 224.804688 177.660156 225.472656 178.277344 226.089844 C 178.894531 226.707031 179.566406 227.257812 180.292969 227.742188 C 181.019531 228.226562 181.789062 228.632812 182.59375 228.96875 C 183.402344 229.300781 184.234375 229.550781 185.089844 229.722656 C 185.949219 229.894531 186.8125 229.976562 187.6875 229.976562 C 188.5625 229.976562 189.425781 229.894531 190.285156 229.722656 C 191.140625 229.550781 191.972656 229.300781 192.78125 228.96875 C 193.585938 228.632812 194.355469 228.226562 195.082031 227.742188 C 195.808594 227.257812 196.480469 226.707031 197.097656 226.089844 C 197.714844 225.472656 198.265625 224.804688 198.753906 224.078125 C 199.238281 223.355469 199.648438 222.589844 199.984375 221.785156 C 200.316406 220.976562 200.570312 220.148438 200.738281 219.292969 C 200.910156 218.4375 200.996094 217.574219 200.996094 216.703125 L 200.996094 256.527344 C 200.996094 263.9375 195.117188 269.800781 187.6875 269.800781 C 180.257812 269.800781 174.378906 263.9375 174.378906 256.527344 Z M 174.378906 216.703125 "/>
</g>
</g>
</svg>
