<?xml version="1.0" encoding="UTF-8"?>
<svg xmlns="http://www.w3.org/2000/svg" xmlns:xlink="http://www.w3.org/1999/xlink" width="375pt" height="374.999991pt" viewBox="0 0 375 374.999991" version="1.2">
<defs>
<clipPath id="clip1">
  <path d="M 31.332031 31.332031 L 343.332031 31.332031 L 343.332031 343.332031 L 31.332031 343.332031 Z M 31.332031 31.332031 "/>
</clipPath>
</defs>
<g id="surface1">
<g clip-path="url(#clip1)" clip-rule="nonzero">
<path style=" stroke:none;fill-rule:nonzero;fill:rgb(255,255,255);fill-opacity:1;" d="M 187.332031 41.730469 C 267.625 41.730469 332.929688 107.035156 332.929688 187.332031 C 332.929688 267.625 267.625 332.929688 187.332031 332.929688 C 107.035156 332.929688 41.730469 267.625 41.730469 187.332031 C 41.730469 107.035156 107.035156 41.730469 187.332031 41.730469 Z M 187.332031 343.332031 C 273.355469 343.332031 343.332031 273.355469 343.332031 187.332031 C 343.332031 101.308594 273.355469 31.332031 187.332031 31.332031 C 101.308594 31.332031 31.332031 101.308594 31.332031 187.332031 C 31.332031 273.355469 101.308594 343.332031 187.332031 343.332031 "/>
</g>
<path style=" stroke:none;fill-rule:nonzero;fill:rgb(255,255,255);fill-opacity:1;" d="M 187.332031 182.128906 C 218.207031 182.128906 245.402344 203.480469 252.878906 233.238281 C 236.953125 253.671875 213.1875 265.332031 187.332031 265.332031 C 161.472656 265.332031 137.707031 253.671875 121.78125 233.238281 C 129.257812 203.480469 156.457031 182.128906 187.332031 182.128906 Z M 156.128906 140.53125 C 156.128906 123.324219 170.125 109.332031 187.332031 109.332031 C 204.535156 109.332031 218.53125 123.324219 218.53125 140.53125 C 218.53125 157.734375 204.535156 171.730469 187.332031 171.730469 C 170.125 171.730469 156.128906 157.734375 156.128906 140.53125 Z M 187.332031 275.730469 C 216.886719 275.730469 245.058594 261.449219 262.667969 237.503906 C 263.5625 236.304688 263.886719 234.800781 263.5625 233.339844 C 257.589844 205.347656 236.566406 183.449219 210.160156 175.265625 C 221.457031 167.808594 228.929688 155.035156 228.929688 140.53125 C 228.929688 117.597656 210.261719 98.929688 187.332031 98.929688 C 164.398438 98.929688 145.730469 117.597656 145.730469 140.53125 C 145.730469 155.035156 153.207031 167.808594 164.5 175.265625 C 138.09375 183.449219 117.070312 205.347656 111.097656 233.339844 C 110.773438 234.800781 111.097656 236.304688 111.992188 237.503906 C 129.601562 261.449219 157.777344 275.730469 187.332031 275.730469 "/>
</g>
</svg>
