<?xml version="1.0" encoding="UTF-8"?>
<svg xmlns="http://www.w3.org/2000/svg" xmlns:xlink="http://www.w3.org/1999/xlink" width="375pt" height="374.999991pt" viewBox="0 0 375 374.999991" version="1.2">
<defs>
<clipPath id="clip1">
  <path d="M 32.261719 37.5 L 342.761719 37.5 L 342.761719 337.5 L 32.261719 337.5 Z M 32.261719 37.5 "/>
</clipPath>
</defs>
<g id="surface1">
<g clip-path="url(#clip1)" clip-rule="nonzero">
<path style=" stroke:none;fill-rule:nonzero;fill:rgb(255,255,255);fill-opacity:1;" d="M 327.175781 327.15625 L 47.84375 327.15625 C 44.992188 327.15625 42.671875 324.835938 42.671875 321.984375 L 42.671875 89.222656 L 332.347656 89.222656 L 332.347656 321.984375 C 332.347656 324.835938 330.027344 327.15625 327.175781 327.15625 Z M 47.84375 47.84375 L 327.175781 47.84375 C 330.027344 47.84375 332.347656 50.164062 332.347656 53.015625 L 332.347656 78.878906 L 42.671875 78.878906 L 42.671875 53.015625 C 42.671875 50.164062 44.992188 47.84375 47.84375 47.84375 Z M 327.175781 37.5 L 47.84375 37.5 C 39.289062 37.5 32.328125 44.460938 32.328125 53.015625 L 32.328125 321.984375 C 32.328125 330.539062 39.289062 337.5 47.84375 337.5 L 327.175781 337.5 C 335.734375 337.5 342.695312 330.539062 342.695312 321.984375 L 342.695312 53.015625 C 342.695312 44.460938 335.734375 37.5 327.175781 37.5 "/>
</g>
<path style=" stroke:none;fill-rule:nonzero;fill:rgb(255,255,255);fill-opacity:1;" d="M 99.574219 68.535156 C 102.429688 68.535156 104.746094 66.21875 104.746094 63.363281 C 104.746094 60.503906 102.429688 58.191406 99.574219 58.191406 C 96.714844 58.191406 94.398438 60.503906 94.398438 63.363281 C 94.398438 66.21875 96.714844 68.535156 99.574219 68.535156 "/>
<path style=" stroke:none;fill-rule:nonzero;fill:rgb(255,255,255);fill-opacity:1;" d="M 78.882812 68.535156 C 81.738281 68.535156 84.054688 66.21875 84.054688 63.363281 C 84.054688 60.503906 81.738281 58.191406 78.882812 58.191406 C 76.023438 58.191406 73.707031 60.503906 73.707031 63.363281 C 73.707031 66.21875 76.023438 68.535156 78.882812 68.535156 "/>
<path style=" stroke:none;fill-rule:nonzero;fill:rgb(255,255,255);fill-opacity:1;" d="M 58.191406 68.535156 C 61.046875 68.535156 63.363281 66.21875 63.363281 63.363281 C 63.363281 60.503906 61.046875 58.191406 58.191406 58.191406 C 55.332031 58.191406 53.019531 60.503906 53.019531 63.363281 C 53.019531 66.21875 55.332031 68.535156 58.191406 68.535156 "/>
<path style=" stroke:none;fill-rule:nonzero;fill:rgb(255,255,255);fill-opacity:1;" d="M 244.410156 254.742188 L 151.300781 254.742188 L 151.300781 244.398438 L 244.410156 244.398438 Z M 130.609375 244.398438 L 140.957031 244.398438 L 140.957031 254.742188 L 130.609375 254.742188 Z M 249.585938 234.050781 L 125.4375 234.050781 C 122.582031 234.050781 120.265625 236.367188 120.265625 239.222656 L 120.265625 259.914062 C 120.265625 262.769531 122.582031 265.085938 125.4375 265.085938 L 249.585938 265.085938 C 252.441406 265.085938 254.757812 262.769531 254.757812 259.914062 L 254.757812 239.222656 C 254.757812 236.367188 252.441406 234.050781 249.585938 234.050781 "/>
<path style=" stroke:none;fill-rule:nonzero;fill:rgb(255,255,255);fill-opacity:1;" d="M 244.410156 296.121094 L 151.300781 296.121094 L 151.300781 285.777344 L 244.410156 285.777344 Z M 130.609375 285.777344 L 140.957031 285.777344 L 140.957031 296.121094 L 130.609375 296.121094 Z M 249.585938 275.429688 L 125.4375 275.429688 C 122.582031 275.429688 120.265625 277.746094 120.265625 280.601562 L 120.265625 301.292969 C 120.265625 304.148438 122.582031 306.464844 125.4375 306.464844 L 249.585938 306.464844 C 252.441406 306.464844 254.757812 304.148438 254.757812 301.292969 L 254.757812 280.601562 C 254.757812 277.746094 252.441406 275.429688 249.585938 275.429688 "/>
<path style=" stroke:none;fill-rule:nonzero;fill:rgb(255,255,255);fill-opacity:1;" d="M 187.511719 120.257812 C 213.179688 120.257812 234.066406 141.144531 234.066406 166.808594 C 234.066406 175.027344 231.886719 183.03125 227.835938 190.054688 C 222.265625 178.296875 213.425781 169.410156 203.0625 164.917969 C 206.257812 161.273438 208.203125 156.507812 208.203125 151.292969 C 208.203125 139.886719 198.917969 130.601562 187.511719 130.601562 C 176.101562 130.601562 166.820312 139.886719 166.820312 151.292969 C 166.820312 156.507812 168.765625 161.273438 171.960938 164.917969 C 161.597656 169.410156 152.757812 178.296875 147.1875 190.054688 C 143.136719 183.03125 140.957031 175.027344 140.957031 166.808594 C 140.957031 141.144531 161.839844 120.257812 187.511719 120.257812 Z M 177.164062 151.292969 C 177.164062 145.589844 181.808594 140.949219 187.511719 140.949219 C 193.214844 140.949219 197.855469 145.589844 197.855469 151.292969 C 197.855469 156.996094 193.214844 161.636719 187.511719 161.636719 C 181.808594 161.636719 177.164062 156.996094 177.164062 151.292969 Z M 154.453125 199.570312 C 160.253906 182.957031 173.253906 171.984375 187.511719 171.984375 C 201.765625 171.984375 214.765625 182.957031 220.566406 199.570312 C 211.855469 208.363281 199.964844 213.363281 187.511719 213.363281 C 175.054688 213.363281 163.167969 208.363281 154.453125 199.570312 Z M 187.511719 223.707031 C 203.90625 223.707031 219.511719 216.628906 230.3125 204.292969 C 239.40625 193.921875 244.410156 180.609375 244.410156 166.808594 C 244.410156 135.4375 218.886719 109.914062 187.511719 109.914062 C 156.136719 109.914062 130.609375 135.4375 130.609375 166.808594 C 130.609375 180.609375 135.617188 193.921875 144.707031 204.289062 C 155.511719 216.628906 171.113281 223.707031 187.511719 223.707031 "/>
</g>
</svg>
